<svg xmlns="http://www.w3.org/2000/svg" width="128" height="128" viewBox="0 0 128 128">
  <defs>
    <linearGradient id="msgGradient" x1="0%" y1="0%" x2="100%" y2="100%">
      <stop offset="0%" stop-color="#60a5fa" />
      <stop offset="100%" stop-color="#2563eb" />
    </linearGradient>
  </defs>
  <rect x="12" y="18" width="104" height="78" rx="18" fill="url(#msgGradient)" />
  <rect x="24" y="32" width="80" height="16" rx="6" fill="rgba(255,255,255,0.8)" />
  <rect x="24" y="54" width="64" height="12" rx="6" fill="rgba(255,255,255,0.65)" />
  <path d="M48 96l-18 18c-1.6 1.6-4.4 0.5-4.4-1.8V96z" fill="#1d4ed8" />
  <circle cx="100" cy="88" r="12" fill="#0ea5e9" />
  <path d="M100 80c-4.4 0-8 3.6-8 8 0 1.5.4 2.9 1.2 4.2l-1.8 5.8 6-2c.8.2 1.7.4 2.6.4 4.4 0 8-3.6 8-8s-3.6-8-8-8z" fill="#ffffff" opacity="0.9" />
</svg>
