<svg xmlns="http://www.w3.org/2000/svg" width="400" height="400" viewBox="0 0 400 400">
  <defs>
    <linearGradient id="sandBase" x1="0" y1="0" x2="0" y2="1">
      <stop offset="0" stop-color="#fff5dc" />
      <stop offset="0.5" stop-color="#f5e0b7" />
      <stop offset="1" stop-color="#f1d4a0" />
    </linearGradient>
    <pattern id="sandGrain" width="24" height="24" patternUnits="userSpaceOnUse">
      <circle cx="4" cy="6" r="1.2" fill="rgba(197,152,86,0.35)" />
      <circle cx="12" cy="14" r="1.4" fill="rgba(218,170,102,0.35)" />
      <circle cx="20" cy="8" r="1" fill="rgba(182,136,74,0.32)" />
      <circle cx="6" cy="20" r="0.9" fill="rgba(182,136,74,0.22)" />
      <circle cx="18" cy="4" r="0.8" fill="rgba(158,116,58,0.25)" />
      <circle cx="2" cy="14" r="0.8" fill="rgba(158,116,58,0.25)" />
      <circle cx="14" cy="2" r="0.7" fill="rgba(158,116,58,0.2)" />
      <circle cx="22" cy="18" r="0.9" fill="rgba(197,152,86,0.28)" />
    </pattern>
    <radialGradient id="duneGlow" cx="0.8" cy="0.15" r="0.7">
      <stop offset="0" stop-color="rgba(255,255,255,0.55)" />
      <stop offset="1" stop-color="rgba(255,255,255,0)" />
    </radialGradient>
  </defs>
  <rect width="400" height="400" fill="url(#sandBase)" />
  <rect width="400" height="400" fill="url(#sandGrain)" opacity="0.75" />
  <rect width="400" height="400" fill="url(#duneGlow)" />
  <path d="M0 220c60-40 120-40 180 0s120 40 220-10" fill="none" stroke="rgba(222,182,118,0.6)" stroke-width="4" opacity="0.4" />
  <g fill="rgba(66,130,92,0.28)" opacity="0.8">
    <path d="M60 260c12-36 18-60 32-60s20 24 32 60z" />
    <path d="M82 260c6-18 9-30 16-30s10 12 16 30z" />
  </g>
  <g fill="rgba(66,130,92,0.32)" opacity="0.9">
    <path d="M300 300c10-26 16-46 28-46s16 18 28 46z" />
    <path d="M318 302c5-14 8-24 14-24s8 10 14 24z" />
  </g>
</svg>
