<svg xmlns="http://www.w3.org/2000/svg" width="400" height="400" viewBox="0 0 400 400">
  <defs>
    <linearGradient id="forestBase" x1="0" y1="0" x2="0" y2="1">
      <stop offset="0" stop-color="#f0f8ec" />
      <stop offset="0.5" stop-color="#d8ebd0" />
      <stop offset="1" stop-color="#c9dfc1" />
    </linearGradient>
    <pattern id="leafPattern" width="32" height="32" patternUnits="userSpaceOnUse">
      <path d="M4 18c4-8 12-14 24-16-4 8-12 14-24 16z" fill="rgba(92,150,88,0.32)" />
      <path d="M10 28c6-4 10-10 12-18 2 8-2 16-12 18z" fill="rgba(60,110,72,0.25)" />
      <path d="M26 10c2 8-4 18-14 22 2-8 6-16 14-22z" fill="rgba(108,162,104,0.28)" />
    </pattern>
    <pattern id="barkPattern" width="20" height="80" patternUnits="userSpaceOnUse">
      <rect width="20" height="80" fill="rgba(136,94,60,0.18)" />
      <path d="M4 0c2 8 2 16 0 24s-2 16 0 24 2 16 0 32" stroke="rgba(104,74,46,0.35)" stroke-width="2" fill="none" />
    </pattern>
    <radialGradient id="forestGlow" cx="0.2" cy="0.15" r="0.8">
      <stop offset="0" stop-color="rgba(255,255,255,0.7)" />
      <stop offset="1" stop-color="rgba(255,255,255,0)" />
    </radialGradient>
  </defs>
  <rect width="400" height="400" fill="url(#forestBase)" />
  <rect width="400" height="400" fill="url(#leafPattern)" opacity="0.85" />
  <rect width="400" height="400" fill="url(#barkPattern)" opacity="0.3" />
  <rect width="400" height="400" fill="url(#forestGlow)" />
  <g fill="rgba(128,176,116,0.4)" opacity="0.75">
    <circle cx="60" cy="320" r="36" />
    <circle cx="120" cy="300" r="26" />
    <circle cx="280" cy="320" r="32" />
    <circle cx="340" cy="300" r="22" />
  </g>
  <g fill="rgba(92,130,72,0.5)" opacity="0.6">
    <path d="M80 260l14-40 14 40z" />
    <path d="M300 250l12-36 12 36z" />
  </g>
</svg>
