<svg xmlns="http://www.w3.org/2000/svg" width="1600" height="900" viewBox="0 0 1600 900">
  <defs>
    <linearGradient id="nebula" x1="0%" y1="0%" x2="100%" y2="100%">
      <stop offset="0%" stop-color="#f3f0ff"/>
      <stop offset="45%" stop-color="#dcd2ff"/>
      <stop offset="100%" stop-color="#c6c1ff"/>
    </linearGradient>
    <radialGradient id="glow1" cx="20%" cy="25%" r="40%">
      <stop offset="0%" stop-color="rgba(255,255,255,0.85)"/>
      <stop offset="100%" stop-color="rgba(255,255,255,0)"/>
    </radialGradient>
    <radialGradient id="glow2" cx="78%" cy="32%" r="45%">
      <stop offset="0%" stop-color="rgba(255,200,255,0.7)"/>
      <stop offset="100%" stop-color="rgba(255,200,255,0)"/>
    </radialGradient>
    <linearGradient id="sweep" x1="0%" y1="0%" x2="100%" y2="0%">
      <stop offset="0%" stop-color="rgba(255,255,255,0.45)"/>
      <stop offset="50%" stop-color="rgba(255,255,255,0)"/>
      <stop offset="100%" stop-color="rgba(255,255,255,0.4)"/>
    </linearGradient>
  </defs>
  <rect width="1600" height="900" fill="url(#nebula)"/>
  <rect width="1600" height="900" fill="url(#glow1)"/>
  <rect width="1600" height="900" fill="url(#glow2)"/>
  <g fill="white" opacity="0.72">
    <circle cx="180" cy="120" r="2.2"/>
    <circle cx="260" cy="220" r="1.8"/>
    <circle cx="340" cy="180" r="1.5"/>
    <circle cx="520" cy="140" r="2.1"/>
    <circle cx="620" cy="260" r="1.6"/>
    <circle cx="760" cy="180" r="2.3"/>
    <circle cx="880" cy="120" r="1.7"/>
    <circle cx="980" cy="220" r="2.4"/>
    <circle cx="1120" cy="180" r="1.6"/>
    <circle cx="1250" cy="140" r="1.9"/>
    <circle cx="1380" cy="220" r="2.2"/>
    <circle cx="1480" cy="120" r="1.8"/>
  </g>
  <g fill="white" opacity="0.5">
    <circle cx="200" cy="420" r="1.4"/>
    <circle cx="340" cy="520" r="1.6"/>
    <circle cx="520" cy="480" r="1.8"/>
    <circle cx="660" cy="420" r="1.5"/>
    <circle cx="820" cy="500" r="1.7"/>
    <circle cx="980" cy="460" r="1.4"/>
    <circle cx="1140" cy="520" r="1.8"/>
    <circle cx="1280" cy="460" r="1.5"/>
    <circle cx="1440" cy="500" r="1.6"/>
  </g>
  <g opacity="0.4" stroke="#9ea6ff" stroke-width="2" stroke-linecap="round">
    <path d="M140 640 C420 560 680 560 980 620" fill="none"/>
    <path d="M260 720 C520 660 760 660 1120 720" fill="none"/>
    <path d="M420 800 C720 740 1000 740 1380 820" fill="none"/>
  </g>
  <rect width="1600" height="900" fill="url(#sweep)" opacity="0.35"/>
  <g opacity="0.3" stroke="#c4bcff" stroke-width="6" stroke-linecap="round">
    <path d="M80 280 l80 -40"/>
    <path d="M1500 340 l90 -48"/>
    <path d="M760 100 l120 -42"/>
  </g>
</svg>
